<svg version="1.1" viewBox="-300 -350 900 1000" xmlns="http://www.w3.org/2000/svg">
    <g transform="translate(150 100)">
        <path stroke-dasharray="10,5" d="M 0 -350 a 350 350 0 0 1 0 700 a 350 350 0 0 1 0 -700" fill="none"
            stroke="#f9a" stroke-width="10" />

        <path d="M -80 0 a 80 80 0 0 1 160 0 v 350 a 80 80 0 0 1 -160 0 z" stroke="#6cf" stroke-width="6" fill="#ff9" />
        <path transform="rotate(120)" d="M -80 0 a 80 80 0 0 1 160 0 v 350 a 80 80 0 0 1 -160 0 z" stroke="#6cf" stroke-width="6" fill="#ff9" />
        <path transform="rotate(240)" d="M -80 0 a 80 80 0 0 1 160 0 v 350 a 80 80 0 0 1 -160 0 z" stroke="#6cf" stroke-width="6" fill="#ff9" />
        <text x="0" y="175" font-size="55" alignment-baseline="middle" text-anchor="middle" fill="#04f">G♭aug</text>
        <text x="151.554445663" y="-87.5" font-size="55" alignment-baseline="middle" text-anchor="middle" fill="#04f">Daug</text>
        <text x="-151.554445663" y="-87.5" font-size="55" alignment-baseline="middle" text-anchor="middle" fill="#04f">B♭aug</text>
        <g transform="translate(0 175) scale(1.5) translate(0 80)">
            <text x="-30" y="35" font-size="25" text-anchor="middle" fill="#04f">G♭</text>
            <text x="0" y="35" font-size="25" text-anchor="middle" fill="#04f">B♭</text>
            <text x="30" y="35" font-size="25" text-anchor="middle" fill="#f35">D</text>
            <path d="M 0 45 v 10 h 30 v -10" stroke="#04f" stroke-width="3" fill="none" />
            <path d="M 0 45 v 10 h -30 v -10" stroke="#04f" stroke-width="3" fill="none" />
        </g>

        <g transform="translate(-300 -350) scale(1.5) translate(0 80)">
            <text x="-30" y="35" font-size="25" text-anchor="middle" fill="#04f">B♭</text>
            <text x="0" y="35" font-size="25" text-anchor="middle" fill="#04f">D</text>
            <text x="30" y="35" font-size="25" text-anchor="middle" fill="#f35">F♯</text>
            <path d="M 0 45 v 10 h 30 v -10" stroke="#04f" stroke-width="3" fill="none" />
            <path d="M 0 45 v 10 h -30 v -10" stroke="#04f" stroke-width="3" fill="none" />
        </g>

        <g transform="translate(300 -350) scale(1.5) translate(0 80)">
            <text x="-30" y="35" font-size="25" text-anchor="middle" fill="#04f">D</text>
            <text x="0" y="35" font-size="25" text-anchor="middle" fill="#04f">F♯</text>
            <text x="30" y="35" font-size="25" text-anchor="middle" fill="#f35">A♯</text>
            <path d="M 0 45 v 10 h 30 v -10" stroke="#04f" stroke-width="3" fill="none" />
            <path d="M 0 45 v 10 h -30 v -10" stroke="#04f" stroke-width="3" fill="none" />
        </g>



        <g transform="translate(350 0)">
            <circle cx="0" cy="0" r="80" stroke="#6cf" stroke-width="6" fill="#ff9" />
            <text x="0" y="-15" font-size="40" text-anchor="middle" fill="#04f">BmM7</text>
            <g transform="translate(-15 -5)">
                <text x="-30" y="35" font-size="25" text-anchor="middle" fill="#f35">B</text>
                <text x="0" y="35" font-size="25" text-anchor="middle" fill="#04f">D</text>
                <text x="30" y="35" font-size="25" text-anchor="middle" fill="#04f">F♯</text>
                <text x="60" y="35" font-size="25" text-anchor="middle" fill="#04f">A♯</text>
                <path d="M -35 13 l -15 -10" stroke="#f35" stroke-width="3" fill="none" />
                <path d="M 0 45 l -15 10 l -15 -10" stroke="#f35" stroke-width="3" fill="none" />
                <path d="M 0 45 v 10 h 30 v -10" stroke="#04f" stroke-width="3" fill="none" />
                <path d="M 31 45 v 10 h 30 v -10" stroke="#04f" stroke-width="3" fill="none" />
                <path d="M 65 13 l 15 -10" stroke="#f35" stroke-width="3" fill="none" />
            </g>
        </g>

        <g transform="translate(303.108891325 175)">
            <circle cx="0" cy="0" r="80" stroke="#6cf" stroke-width="6" fill="#ff9" />
            <text x="0" y="-15" font-size="40" text-anchor="middle" fill="#04f">Daug7</text>
            <g transform="translate(-15 -5)">
                <text x="-30" y="35" font-size="25" text-anchor="middle" fill="#04f">D</text>
                <text x="0" y="35" font-size="25" text-anchor="middle" fill="#04f">F♯</text>
                <text x="30" y="35" font-size="25" text-anchor="middle" fill="#04f">A♯</text>
                <text x="60" y="35" font-size="25" text-anchor="middle" fill="#f35">C</text>
                <path d="M -35 13 v -7 h -15" stroke="#f35" stroke-width="3" fill="none" />
                <path d="M 0 45 v 10 h -30 v -10" stroke="#04f" stroke-width="3" fill="none" />
                <path d="M 0 45 v 10 h 30 v -10" stroke="#04f" stroke-width="3" fill="none" />
                <path d="M 65 13 v -7 h 15" stroke="#f35" stroke-width="3" fill="none" />
                <path d="M 65 13 v -7 h -30 v7" stroke="#f35" stroke-width="3" fill="none" />
            </g>
        </g>

        <g transform="translate(175 303.108891325)">
            <circle cx="0" cy="0" r="80" stroke="#6cf" stroke-width="6" fill="#ff9" />
            <text x="0" y="-15" font-size="35" text-anchor="middle" fill="#04f">DaugM7</text>
            <g transform="translate(15 -5)">
                <text x="-60" y="35" font-size="25" text-anchor="middle" fill="#04f">D</text>
                <text x="-30" y="35" font-size="25" text-anchor="middle" fill="#04f">F♯</text>
                <text x="0" y="35" font-size="25" text-anchor="middle" fill="#04f">A♯</text>
                <text x="30" y="35" font-size="25" text-anchor="middle" fill="#f35">C♯</text>
                <path d="M 35 13 l 15 -10" stroke="#f35" stroke-width="3" fill="none" />
                <path d="M 0 45 l 15 10 l 15 -10" stroke="#f35" stroke-width="3" fill="none" />
                <path d="M 0 45 v 10 h -30 v -10" stroke="#04f" stroke-width="3" fill="none" />
                <path d="M -31 45 v 10 h -30 v -10" stroke="#04f" stroke-width="3" fill="none" />
                <path d="M -65 13 l -15 -10" stroke="#f35" stroke-width="3" fill="none" />
            </g>
        </g>







        
        <g transform="translate(-175 303.108891325)">
            <circle cx="0" cy="0" r="80" stroke="#6cf" stroke-width="6" fill="#ff9" />
            <text x="0" y="-15" font-size="40" text-anchor="middle" fill="#04f">E♭mM7</text>
            <g transform="translate(-15 -5)">
                <text x="-30" y="35" font-size="25" text-anchor="middle" fill="#f35">E♭</text>
                <text x="0" y="35" font-size="25" text-anchor="middle" fill="#04f">G♭</text>
                <text x="30" y="35" font-size="25" text-anchor="middle" fill="#04f">B♭</text>
                <text x="60" y="35" font-size="25" text-anchor="middle" fill="#04f">D</text>
                <path d="M -35 13 l -15 -10" stroke="#f35" stroke-width="3" fill="none" />
                <path d="M 0 45 l -15 10 l -15 -10" stroke="#f35" stroke-width="3" fill="none" />
                <path d="M 0 45 v 10 h 30 v -10" stroke="#04f" stroke-width="3" fill="none" />
                <path d="M 31 45 v 10 h 30 v -10" stroke="#04f" stroke-width="3" fill="none" />
                <path d="M 65 13 l 15 -10" stroke="#f35" stroke-width="3" fill="none" />
            </g>
        </g>

        <g transform="translate(0 -350)">
            <circle cx="0" cy="0" r="80" stroke="#6cf" stroke-width="6" fill="#ff9" />
            <text x="0" y="-15" font-size="40" text-anchor="middle" fill="#04f">B♭aug7</text>
            <g transform="translate(-15 -5)">
                <text x="-30" y="35" font-size="25" text-anchor="middle" fill="#04f">B♭</text>
                <text x="0" y="35" font-size="25" text-anchor="middle" fill="#04f">D</text>
                <text x="30" y="35" font-size="25" text-anchor="middle" fill="#04f">F♯</text>
                <text x="60" y="35" font-size="25" text-anchor="middle" fill="#f35">A♭</text>
                <path d="M -35 13 v -7 h -15" stroke="#f35" stroke-width="3" fill="none" />
                <path d="M 0 45 v 10 h -30 v -10" stroke="#04f" stroke-width="3" fill="none" />
                <path d="M 0 45 v 10 h 30 v -10" stroke="#04f" stroke-width="3" fill="none" />
                <path d="M 65 13 v -7 h 15" stroke="#f35" stroke-width="3" fill="none" />
                <path d="M 65 13 v -7 h -30 v7" stroke="#f35" stroke-width="3" fill="none" />
            </g>
        </g>

        <g transform="translate(175 -303.108891325)">
            <circle cx="0" cy="0" r="80" stroke="#6cf" stroke-width="6" fill="#ff9" />
            <text x="0" y="-15" font-size="35" text-anchor="middle" fill="#04f">B♭augM7</text>
            <g transform="translate(15 -5)">
                <text x="-60" y="35" font-size="25" text-anchor="middle" fill="#04f">B♭</text>
                <text x="-30" y="35" font-size="25" text-anchor="middle" fill="#04f">D</text>
                <text x="0" y="35" font-size="25" text-anchor="middle" fill="#04f">F♯</text>
                <text x="30" y="35" font-size="25" text-anchor="middle" fill="#f35">A</text>
                <path d="M 35 13 l 15 -10" stroke="#f35" stroke-width="3" fill="none" />
                <path d="M 0 45 l 15 10 l 15 -10" stroke="#f35" stroke-width="3" fill="none" />
                <path d="M 0 45 v 10 h -30 v -10" stroke="#04f" stroke-width="3" fill="none" />
                <path d="M -31 45 v 10 h -30 v -10" stroke="#04f" stroke-width="3" fill="none" />
                <path d="M -65 13 l -15 -10" stroke="#f35" stroke-width="3" fill="none" />
            </g>
        </g>





        <g transform="translate(-175 -303.108891325)">
            <circle cx="0" cy="0" r="80" stroke="#6cf" stroke-width="6" fill="#ff9" />
            <text x="0" y="-15" font-size="40" text-anchor="middle" fill="#04f">GmM7</text>
            <g transform="translate(-15 -5)">
                <text x="-30" y="35" font-size="25" text-anchor="middle" fill="#f35">G</text>
                <text x="0" y="35" font-size="25" text-anchor="middle" fill="#04f">B♭</text>
                <text x="30" y="35" font-size="25" text-anchor="middle" fill="#04f">D</text>
                <text x="60" y="35" font-size="25" text-anchor="middle" fill="#04f">F♯</text>
                <path d="M -35 13 l -15 -10" stroke="#f35" stroke-width="3" fill="none" />
                <path d="M 0 45 l -15 10 l -15 -10" stroke="#f35" stroke-width="3" fill="none" />
                <path d="M 0 45 v 10 h 30 v -10" stroke="#04f" stroke-width="3" fill="none" />
                <path d="M 31 45 v 10 h 30 v -10" stroke="#04f" stroke-width="3" fill="none" />
                <path d="M 65 13 l 15 -10" stroke="#f35" stroke-width="3" fill="none" />
            </g>
        </g>

        <g transform="translate(-303.108891325 175)">
            <circle cx="0" cy="0" r="80" stroke="#6cf" stroke-width="6" fill="#ff9" />
            <text x="0" y="-15" font-size="40" text-anchor="middle" fill="#04f">G♭aug7</text>
            <g transform="translate(-15 -5)">
                <text x="-30" y="35" font-size="25" text-anchor="middle" fill="#04f">G♭</text>
                <text x="0" y="35" font-size="25" text-anchor="middle" fill="#04f">B♭</text>
                <text x="30" y="35" font-size="25" text-anchor="middle" fill="#04f">D</text>
                <text x="60" y="35" font-size="25" text-anchor="middle" fill="#f35">F♭</text>
                <path d="M -35 13 v -7 h -15" stroke="#f35" stroke-width="3" fill="none" />
                <path d="M 0 45 v 10 h -30 v -10" stroke="#04f" stroke-width="3" fill="none" />
                <path d="M 0 45 v 10 h 30 v -10" stroke="#04f" stroke-width="3" fill="none" />
                <path d="M 65 13 v -7 h 15" stroke="#f35" stroke-width="3" fill="none" />
                <path d="M 65 13 v -7 h -30 v7" stroke="#f35" stroke-width="3" fill="none" />
            </g>
        </g>

        <g transform="translate(-350 0)">
            <circle cx="0" cy="0" r="80" stroke="#6cf" stroke-width="6" fill="#ff9" />
            <text x="0" y="-15" font-size="35" text-anchor="middle" fill="#04f">G♭augM7</text>
            <g transform="translate(15 -5)">
                <text x="-60" y="35" font-size="25" text-anchor="middle" fill="#04f">G♭</text>
                <text x="-30" y="35" font-size="25" text-anchor="middle" fill="#04f">B♭</text>
                <text x="0" y="35" font-size="25" text-anchor="middle" fill="#04f">D</text>
                <text x="30" y="35" font-size="25" text-anchor="middle" fill="#f35">F</text>
                <path d="M 35 13 l 15 -10" stroke="#f35" stroke-width="3" fill="none" />
                <path d="M 0 45 l 15 10 l 15 -10" stroke="#f35" stroke-width="3" fill="none" />
                <path d="M 0 45 v 10 h -30 v -10" stroke="#04f" stroke-width="3" fill="none" />
                <path d="M -31 45 v 10 h -30 v -10" stroke="#04f" stroke-width="3" fill="none" />
                <path d="M -65 13 l -15 -10" stroke="#f35" stroke-width="3" fill="none" />
            </g>
        </g>

        <text style="font-weight: bold;" x="-115" y="-199.18584287"  font-size="50"
            text-anchor="middle" fill="#6cf">G</text>

        <text style="font-weight: bold;" alignment-baseline="middle" x="-230" y="0" font-size="50" text-anchor="middle"
            fill="#6cf">F</text>
        <text style="font-weight: bold;" x="-199.18584287" y="115"  font-size="50"
            text-anchor="middle" fill="#6cf">F♭</text>
        <text style="font-weight: bold;" x="-115" y="199.18584287"  font-size="50"
            text-anchor="middle" fill="#6cf">E♭</text>


        <text style="font-weight: bold;" alignment-baseline="middle" x="115" y="199.18584287"  font-size="50"
            text-anchor="middle" fill="#6cf">C♯</text>
        <text style="font-weight: bold;" alignment-baseline="middle" x="199.18584287" y="115" font-size="50"
            text-anchor="middle" fill="#6cf">C</text>
        <text style="font-weight: bold;" alignment-baseline="middle" x="230" y="0" font-size="50" text-anchor="middle"
            fill="#6cf">B</text>


        <text style="font-weight: bold;" alignment-baseline="middle" x="115" y="-199.18584287"  font-size="50"
            text-anchor="middle" fill="#6cf">A</text>    
        <text style="font-weight: bold;" alignment-baseline="middle" x="0" y="-230" font-size="50" text-anchor="middle"
            fill="#6cf">A♭</text>

    </g>
</svg>